<svg width="20" height="20" fill="none" xmlns="http://www.w3.org/2000/svg"><path fill-rule="evenodd" clip-rule="evenodd" d="M1.698 9.411c5.167-2.252 8.614-3.736 10.338-4.453 4.923-2.048 5.946-2.403 6.613-2.415.146-.003.474.034.686.206a.74.74 0 01.253.48c.023.138.053.452.03.698-.267 2.803-1.422 9.605-2.009 12.745-.249 1.328-.738 1.774-1.212 1.817-1.029.095-1.81-.68-2.808-1.334-1.56-1.022-2.441-1.659-3.956-2.657-1.75-1.153-.616-1.787.382-2.823.26-.271 4.797-4.397 4.885-4.771.01-.047.02-.222-.083-.314-.104-.092-.257-.06-.367-.035-.156.035-2.649 1.683-7.477 4.942-.708.486-1.349.723-1.923.71-.633-.014-1.85-.358-2.756-.652-1.11-.36-1.992-.552-1.915-1.165.04-.319.48-.645 1.319-.979z" fill="#4E42AE"/></svg>