<svg width="60" height="60" fill="none" xmlns="http://www.w3.org/2000/svg"><path d="M46.856 39.44h2.856a.893.893 0 000-1.784h-2.856a.892.892 0 000 1.785z" fill="#4E42AE"/><path d="M59.108 25.198H53.47v-8.9a4.476 4.476 0 00-4.47-4.47H33.088V3.903A3.909 3.909 0 0029.183 0H9.542a3.909 3.909 0 00-3.905 3.903v14.723a6.017 6.017 0 00-3.86 1.76A6.027 6.027 0 00.001 24.66L0 24.676v29.257a6.074 6.074 0 006.067 6.066h27.2a.892.892 0 100-1.784h-27.2a4.288 4.288 0 01-4.283-4.282V28.969a6.048 6.048 0 004.283 1.774h33.696a3.5 3.5 0 013.496 3.496v20.479a3.5 3.5 0 01-3.496 3.497H36.24a.892.892 0 100 1.784h3.523a5.287 5.287 0 005.28-5.28v-2.821h14.065c.492 0 .892-.4.892-.893V26.091c0-.493-.4-.893-.892-.893zm-37.7 0v-2.576h30.277v2.576H21.408zm30.277-8.9v.2H43.08a.892.892 0 000 1.785h8.605v2.554H21.408v-2.554h18.698a.892.892 0 000-1.785H21.408v-.475c0-1.33 1.08-2.41 2.409-2.41H49a2.689 2.689 0 012.685 2.686zM7.422 3.904c0-1.168.95-2.119 2.12-2.119h19.641c1.17 0 2.12.951 2.12 2.12v7.924h-.724V7.68a2.415 2.415 0 00-2.413-2.411H10.558A2.414 2.414 0 008.146 7.68v3.174a.892.892 0 101.785 0V7.68c0-.345.28-.626.627-.626h17.608c.347 0 .628.28.628.626v4.148h-4.977a4.2 4.2 0 00-4.194 4.195v9.175h-3.815c-.492 0-.892.4-.892.893v2.868H9.931V13.746a.892.892 0 00-1.785 0v15.211h-.724V3.903zM1.785 24.676c0-1.144.445-2.219 1.254-3.028a4.25 4.25 0 012.598-1.233v8.522a4.288 4.288 0 01-3.852-4.26zm41.919 6.054h6.232a5.512 5.512 0 004.533 4.533v6.571a5.512 5.512 0 00-4.533 4.533h-4.892V34.239a5.257 5.257 0 00-1.34-3.51zm14.512 19.383H45.044v-1.962h5.712a.892.892 0 00.893-.892 3.717 3.717 0 013.712-3.713c.493 0 .893-.4.893-.892v-8.211c0-.493-.4-.893-.892-.893a3.717 3.717 0 01-3.713-3.712c0-.494-.4-.893-.893-.893l-34.055.014v-1.976h41.515v23.13z" fill="#4E42AE"/><path d="M54.538 30.178a.893.893 0 00.786.55.9.9 0 00.87-.57.898.898 0 00-.284-1.024.9.9 0 00-1.023-.052.897.897 0 00-.349 1.096zm1.647 16.739a.9.9 0 00-.868-.548.9.9 0 00-.802.61c-.263.786.651 1.483 1.34 1.022a.905.905 0 00.33-1.084zm-16.138-2.671a4.288 4.288 0 00-4.283-4.283 4.288 4.288 0 00-4.283 4.283 4.288 4.288 0 004.283 4.282 4.288 4.288 0 004.283-4.282zm-6.78 0a2.5 2.5 0 012.497-2.498 2.501 2.501 0 012.499 2.498 2.5 2.5 0 01-2.499 2.498 2.5 2.5 0 01-2.498-2.498z" fill="#4E42AE"/></svg>