<svg width="60" height="60" viewBox="0 0 60 60" fill="none" xmlns="http://www.w3.org/2000/svg">
<path d="M30 0C13.4315 0 0 13.4315 0 30C0 46.5685 13.4315 60 30 60C46.5685 60 60 46.5685 60 30C59.9788 13.4403 46.5597 0.0212355 30 0ZM31.287 57.3617V52.0849C31.287 51.3742 30.7107 50.7979 30 50.7979C29.2893 50.7979 28.713 51.3742 28.713 52.0849V57.3617C14.6009 56.6879 3.3121 45.3991 2.63835 31.287H7.91506C8.6258 31.287 9.20206 30.7107 9.20206 30C9.20206 29.2893 8.6258 28.713 7.91506 28.713H2.63835C3.3121 14.6009 14.6009 3.3121 28.713 2.63835V7.91506C28.713 8.6258 29.2893 9.20206 30 9.20206C30.7107 9.20206 31.287 8.6258 31.287 7.91506V2.63835C45.3991 3.3121 56.6879 14.6009 57.3617 28.713H52.0849C51.3742 28.713 50.7979 29.2893 50.7979 30C50.7979 30.7107 51.3742 31.287 52.0849 31.287H52.0978H57.3745C56.7003 45.4038 45.4041 56.6943 31.287 57.3617Z" fill="#4E42AE"/>
<path d="M43.5778 41.9691L31.2869 29.4723V16.4865C31.2869 15.7757 30.7106 15.1995 29.9999 15.1995C29.2891 15.1995 28.7129 15.7757 28.7129 16.4865V30C28.7143 30.3377 28.8483 30.6612 29.0861 30.9009L41.7373 43.7709C42.2349 44.2791 43.0502 44.2878 43.5585 43.7902C44.0667 43.2926 44.0753 42.4773 43.5778 41.9691Z" fill="#4E42AE"/>
</svg>
