<svg width="41" height="43" viewBox="0 0 41 43" fill="none" xmlns="http://www.w3.org/2000/svg">
<path d="M16.4015 15.8177C17.912 10.8872 16.1797 0.925537 4.98547 0C3.62036 5.99988 4.59741 16.7954 16.4015 15.8177Z" fill="url(#paint0_linear_59_12)"/>
<path d="M18.7948 14.3899C19.2772 14.3024 19.7742 14.2568 20.2817 14.2568C24.8556 14.2568 28.5634 17.9646 28.5634 22.5385C28.5634 27.1124 24.8556 30.8202 20.2817 30.8202C15.7079 30.8202 12 27.1124 12 22.5385C12 20.9871 12.4265 19.5354 13.1688 18.2942C8.18481 16.8296 5.26514 14.0317 3.75085 10.7852C1.38904 14.1008 0 18.1575 0 22.5385C0 33.7397 9.08044 42.8202 20.2817 42.8202C31.483 42.8202 40.5634 33.7397 40.5634 22.5385C40.5634 11.3372 31.483 2.25671 20.2817 2.25671C18.5481 2.25671 16.8652 2.47424 15.2589 2.88342C17.6837 6.12427 18.5323 10.3195 18.7948 14.3899Z" fill="url(#paint1_linear_59_12)"/>
<defs>
<linearGradient id="paint0_linear_59_12" x1="10.3578" y1="28.556" x2="202.459" y2="29.6994" gradientUnits="userSpaceOnUse">
<stop stop-color="#EC548A"/>
<stop offset="0.636563" stop-color="#455A94"/>
<stop offset="1" stop-color="#455A94"/>
</linearGradient>
<linearGradient id="paint1_linear_59_12" x1="10.3578" y1="28.556" x2="202.459" y2="29.6994" gradientUnits="userSpaceOnUse">
<stop stop-color="#EC548A"/>
<stop offset="0.636563" stop-color="#455A94"/>
<stop offset="1" stop-color="#455A94"/>
</linearGradient>
</defs>
</svg>
