<svg width="186" height="47" viewBox="0 0 186 47" fill="none" xmlns="http://www.w3.org/2000/svg">
<g clip-path="url(#clip0_1948_1184)">
<path fill-rule="evenodd" clip-rule="evenodd" d="M89.5033 13.7671C92.9909 13.7671 95.8181 10.9399 95.8181 7.45227C95.8181 3.96469 92.9909 1.13745 89.5033 1.13745C86.0157 1.13745 83.1885 3.96469 83.1885 7.45227C83.1885 10.9399 86.0157 13.7671 89.5033 13.7671ZM16.4616 19.1175C17.972 14.187 16.2397 4.22535 5.04555 3.2998C3.68048 9.29971 4.65748 20.0952 16.4616 19.1175ZM20.3418 17.5566C19.8342 17.5566 19.3373 17.6022 18.8549 17.6897C18.5924 13.6193 17.7438 9.42405 15.319 6.18328C16.9253 5.77405 18.6081 5.55653 20.3418 5.55653C31.5431 5.55653 40.6235 14.637 40.6235 25.8383C40.6235 37.0396 31.5431 46.12 20.3418 46.12C9.1405 46.12 0.0600586 37.0396 0.0600586 25.8383C0.0600586 21.4573 1.44914 17.4006 3.8109 14.0849C5.32521 17.3316 8.24486 20.1294 13.2289 21.594C12.4866 22.8352 12.0601 24.2869 12.0601 25.8383C12.0601 30.4122 15.7679 34.12 20.3418 34.12C24.9157 34.12 28.6235 30.4122 28.6235 25.8383C28.6235 21.2644 24.9157 17.5566 20.3418 17.5566ZM64.5508 4.53979H76.5283V45.2029H64.5508V44.0106C62.6024 45.0928 59.8198 45.3264 55.9536 45.191C49.1059 45.191 43.5547 38.5464 43.5547 30.35C43.5547 22.1536 49.1059 15.5091 55.9536 15.5091C59.9606 15.3794 62.6907 16.1444 64.5508 17.5123V4.53979ZM64.5508 30.2167C64.2555 27.2791 62.3791 25.0142 60.1084 25.0142C57.6325 25.0142 55.6255 27.7067 55.6255 31.0281C55.6255 34.3495 57.6325 37.042 60.1084 37.042C62.3791 37.042 64.2555 34.7772 64.5508 31.8395V30.2167ZM83.5144 15.4816H95.4919V45.3947H83.5144V15.4816ZM135.029 15.3124H147.007V45.2255H135.029V15.3124ZM141.344 13.7671C144.832 13.7671 147.659 10.9399 147.659 7.45227C147.659 3.96469 144.832 1.13745 141.344 1.13745C137.857 1.13745 135.029 3.96469 135.029 7.45227C135.029 10.9399 137.857 13.7671 141.344 13.7671ZM165.334 15.6507H151.039L159.785 30.0905L150.591 45.2256H163.485L168.887 37.4334L171.61 45.2256H185.964L176.577 30.0905L185.235 15.6507H171.61L168.887 22.9133L165.334 15.6507ZM101.148 7.45239V45.2256H113.001V32.5747H130.374V23.559H113.001V16.8733H131.446V7.45239H101.148Z" fill="url(#paint0_linear_1948_1184)"/>
</g>
<defs>
<linearGradient id="paint0_linear_1948_1184" x1="10.4179" y1="31.8558" x2="202.519" y2="32.9992" gradientUnits="userSpaceOnUse">
<stop stop-color="#EC548A"/>
<stop offset="0.636563" stop-color="#455A94"/>
<stop offset="1" stop-color="#455A94"/>
</linearGradient>
<clipPath id="clip0_1948_1184">
<rect width="186" height="46" fill="white" transform="translate(0 0.207764)"/>
</clipPath>
</defs>
</svg>
