<svg width="20" height="20" viewBox="0 0 20 20" fill="none" xmlns="http://www.w3.org/2000/svg">
<path fill-rule="evenodd" clip-rule="evenodd" d="M1.6975 9.41104C6.8654 7.15947 10.3115 5.6751 12.0357 4.95792C16.9588 2.91024 17.9818 2.55453 18.6486 2.54279C18.7952 2.54021 19.1231 2.57655 19.3355 2.74889C19.5148 2.89442 19.5642 3.091 19.5878 3.22897C19.6114 3.36695 19.6408 3.68125 19.6174 3.92684C19.3507 6.72996 18.1963 13.5324 17.609 16.6719C17.3605 18.0004 16.8712 18.4458 16.3975 18.4894C15.368 18.5841 14.5863 17.8091 13.5892 17.1555C12.029 16.1327 11.1475 15.496 9.63306 14.498C7.88281 13.3446 9.01742 12.7107 10.0149 11.6747C10.2759 11.4036 14.8118 7.27788 14.8996 6.90362C14.9105 6.85681 14.9207 6.68233 14.8171 6.5902C14.7134 6.49807 14.5604 6.52957 14.45 6.55463C14.2936 6.59015 11.801 8.2376 6.97251 11.497C6.26502 11.9828 5.6242 12.2195 5.05004 12.2071C4.41708 12.1934 3.19952 11.8492 2.29439 11.555C1.1842 11.1941 0.301855 11.0033 0.378687 10.3905C0.418707 10.0712 0.85831 9.74476 1.6975 9.41104Z" fill="#4E42AE"/>
</svg>
