<svg width="60" height="60" viewBox="0 0 60 60" fill="none" xmlns="http://www.w3.org/2000/svg">
<path d="M46.856 39.4406H49.7116C50.2041 39.4406 50.6038 39.041 50.6038 38.5479C50.6038 38.0554 50.2041 37.6558 49.7116 37.6558H46.856C46.3635 37.6558 45.9639 38.0554 45.9639 38.5479C45.9639 39.041 46.3635 39.4406 46.856 39.4406Z" fill="#4E42AE"/>
<path d="M59.1078 25.1985H53.47V21.7319C53.47 21.731 53.47 21.7305 53.47 21.7296V17.3904C53.47 17.3895 53.47 17.3886 53.47 17.3882V16.2987C53.47 13.8336 51.4645 11.8277 48.9999 11.8277H33.0881V3.90335C33.0881 1.75095 31.3362 0 29.1833 0H9.54163C7.38876 0 5.6369 1.75095 5.6369 3.90335V18.6259C4.17892 18.7271 2.8212 19.3419 1.7775 20.386C0.635376 21.5282 0.00503541 23.0457 0.000915527 24.6602C0.000915527 24.6657 0 24.6707 0 24.6762V53.9328C0 57.2781 2.72186 59.9995 6.0672 59.9995H33.2661C33.7587 59.9995 34.1583 59.6004 34.1583 59.1074C34.1583 58.6148 33.7587 58.2152 33.2661 58.2152H6.0672C3.7056 58.2152 1.78436 56.2939 1.78436 53.9328V28.9691C2.88254 30.0645 4.39682 30.743 6.06674 30.743L39.7627 30.7434C41.6904 30.7434 43.2587 32.3117 43.2587 34.2393V47.2568V47.2591V47.2614V51.0031V51.0054V51.0077V54.7188C43.2587 56.6464 41.6904 58.2152 39.7627 58.2152H36.2402C35.7477 58.2152 35.3481 58.6143 35.3481 59.1074C35.3481 59.5999 35.7477 59.9995 36.2402 59.9995H39.7627C42.6746 59.9995 45.0435 57.6306 45.0435 54.7188V51.8976H59.1078C59.6004 51.8976 60 51.498 60 51.0054V26.0907C60 25.5981 59.6008 25.1985 59.1078 25.1985ZM21.4078 25.1985V22.6218H51.6852V25.1985H21.4078ZM51.6852 16.2987V16.4978H43.0801C42.5876 16.4978 42.188 16.8974 42.188 17.3904C42.188 17.883 42.5876 18.2826 43.0801 18.2826H51.6852V20.8374H21.4078V18.2826H40.106C40.5986 18.2826 40.9982 17.883 40.9982 17.3904C40.9982 16.8974 40.5986 16.4978 40.106 16.4978H21.4078V16.0226C21.4078 14.6938 22.4886 13.6125 23.817 13.6125H48.9999C50.4808 13.6125 51.6852 14.8174 51.6852 16.2987ZM7.42172 3.90335C7.42172 2.73468 8.3725 1.78436 9.54163 1.78436H29.1833C30.3525 1.78436 31.3037 2.73514 31.3037 3.90335V11.8277H30.5791V7.68036C30.5791 6.35101 29.4965 5.26886 28.1662 5.26886H10.5579C9.22806 5.26886 8.14636 6.35101 8.14636 7.68036V10.8536C8.14636 11.3461 8.54553 11.7458 9.03854 11.7458C9.5311 11.7458 9.93073 11.3461 9.93073 10.8536V7.68036C9.93073 7.33475 10.2118 7.05368 10.5579 7.05368H28.1662C28.5127 7.05368 28.7943 7.33475 28.7943 7.68036V11.8277H23.817C21.5044 11.8277 19.623 13.7096 19.623 16.0226V25.1985H15.8084C15.3159 25.1985 14.9162 25.5981 14.9162 26.0912V28.9586L9.93073 28.9581V13.7466C9.93073 13.2541 9.5311 12.8545 9.03854 12.8545C8.54553 12.8545 8.14636 13.2541 8.14636 13.7466V28.9581H7.42172V3.90335ZM1.78482 24.6762C1.78482 23.5323 2.23022 22.457 3.03909 21.6476C3.74588 20.9413 4.65591 20.5119 5.6369 20.4149V28.9366C3.47717 28.7206 1.78482 26.8922 1.78482 24.6762ZM43.7036 30.7297H49.9361C50.316 33.0473 52.1512 34.8825 54.4693 35.2625V41.8341C52.1512 42.2141 50.316 44.0488 49.9361 46.3669H45.0435V34.2393C45.0435 32.8931 44.5363 31.6635 43.7036 30.7297ZM58.2156 50.1132H45.0435V48.1512H50.7559C51.2489 48.1512 51.6486 47.7521 51.6486 47.2591C51.6486 45.2119 53.3139 43.5461 55.3615 43.5461C55.854 43.5461 56.2537 43.1465 56.2537 42.654V34.4426C56.2537 33.95 55.854 33.5504 55.3615 33.5504C53.3139 33.5504 51.6486 31.8846 51.6486 29.8375C51.6486 29.3445 51.2489 28.9449 50.7559 28.9449L16.7006 28.9586V26.9833H58.2156V50.1132Z" fill="#4E42AE"/>
<path d="M54.5382 30.1782C54.6627 30.4968 54.9849 30.7147 55.3241 30.7284C55.7022 30.7435 56.0579 30.511 56.1934 30.158C56.3326 29.7955 56.2168 29.3721 55.9096 29.1345C55.6153 28.9061 55.2037 28.8855 54.8874 29.0823C54.5244 29.3084 54.3711 29.7827 54.5382 30.1782Z" fill="#4E42AE"/>
<path d="M56.1853 46.9171C56.0406 46.5743 55.69 46.3481 55.3169 46.3687C54.9512 46.3884 54.6307 46.6324 54.5149 46.9794C54.2522 47.7649 55.1663 48.4621 55.8557 48.0011C56.21 47.764 56.3391 47.3099 56.1853 46.9171Z" fill="#4E42AE"/>
<path d="M40.0471 44.246C40.0471 41.8844 38.1259 39.9631 35.7643 39.9631C33.4027 39.9631 31.4814 41.8844 31.4814 44.246C31.4814 46.6071 33.4027 48.5284 35.7643 48.5284C38.1259 48.5284 40.0471 46.6071 40.0471 44.246ZM33.2663 44.246C33.2663 42.8681 34.3869 41.7475 35.7643 41.7475C37.1422 41.7475 38.2628 42.8681 38.2628 44.246C38.2628 45.6234 37.1422 46.744 35.7643 46.744C34.3869 46.744 33.2663 45.6234 33.2663 44.246Z" fill="#4E42AE"/>
</svg>
