<svg width="60" height="60" fill="none" xmlns="http://www.w3.org/2000/svg"><path d="M30 0C13.431 0 0 13.431 0 30c0 16.569 13.431 30 30 30 16.569 0 30-13.431 30-30C59.979 13.44 46.56.021 30 0zm1.287 57.362v-5.277a1.287 1.287 0 00-2.574 0v5.277c-14.112-.674-25.4-11.963-26.075-26.075h5.277a1.287 1.287 0 000-2.574H2.638c.674-14.112 11.963-25.4 26.075-26.075v5.277a1.287 1.287 0 002.574 0V2.638c14.112.674 25.4 11.963 26.075 26.075h-5.277a1.287 1.287 0 000 2.574h5.289c-.674 14.117-11.97 25.407-26.087 26.075z" fill="#4E42AE"/><path d="M43.578 41.97L31.287 29.471V16.486a1.287 1.287 0 00-2.574 0V30c.001.338.135.661.373.9l12.651 12.87a1.288 1.288 0 001.84-1.8z" fill="#4E42AE"/></svg>