<svg width="41" height="43" fill="none" xmlns="http://www.w3.org/2000/svg"><path d="M16.401 15.818C17.912 10.888 16.18.926 4.985 0 3.62 6 4.597 16.795 16.401 15.818z" fill="url(#paint0_linear_59_12)"/><path d="M18.795 14.39a8.282 8.282 0 11-5.626 3.904c-4.984-1.464-7.904-4.262-9.418-7.509A20.188 20.188 0 000 22.538C0 33.74 9.08 42.82 20.282 42.82c11.201 0 20.281-9.08 20.281-20.282 0-11.2-9.08-20.281-20.281-20.281a20.33 20.33 0 00-5.023.626c2.425 3.241 3.273 7.436 3.536 11.507z" fill="url(#paint1_linear_59_12)"/><defs><linearGradient id="paint0_linear_59_12" x1="10.358" y1="28.556" x2="202.459" y2="29.699" gradientUnits="userSpaceOnUse"><stop stop-color="#EC548A"/><stop offset=".637" stop-color="#455A94"/><stop offset="1" stop-color="#455A94"/></linearGradient><linearGradient id="paint1_linear_59_12" x1="10.358" y1="28.556" x2="202.459" y2="29.699" gradientUnits="userSpaceOnUse"><stop stop-color="#EC548A"/><stop offset=".637" stop-color="#455A94"/><stop offset="1" stop-color="#455A94"/></linearGradient></defs></svg>