<svg width="186" height="47" fill="none" xmlns="http://www.w3.org/2000/svg"><g clip-path="url(#clip0_1948_1184)"><path fill-rule="evenodd" clip-rule="evenodd" d="M89.503 13.767a6.315 6.315 0 100-12.63 6.315 6.315 0 000 12.63zm-73.041 5.35c1.51-4.93-.222-14.892-11.416-15.817-1.366 6-.389 16.795 11.416 15.817zm3.88-1.56c-.508 0-1.005.045-1.487.133-.263-4.07-1.111-8.266-3.536-11.507a20.336 20.336 0 015.023-.626c11.201 0 20.282 9.08 20.282 20.281 0 11.202-9.08 20.282-20.282 20.282S.06 37.04.06 25.838a20.19 20.19 0 013.75-11.753c1.515 3.247 4.435 6.044 9.419 7.509a8.282 8.282 0 107.113-4.037zM64.55 4.54h11.977v40.663H64.551V44.01c-1.949 1.082-4.731 1.315-8.597 1.18-6.848 0-12.4-6.645-12.4-14.841s5.552-14.84 12.4-14.84c4.007-.13 6.737.634 8.597 2.002V4.54zm0 25.677c-.296-2.938-2.172-5.203-4.443-5.203-2.475 0-4.482 2.693-4.482 6.014 0 3.322 2.007 6.014 4.482 6.014 2.271 0 4.148-2.265 4.443-5.203v-1.622zm18.963-14.735h11.978v29.913H83.514V15.482zm51.515-.17h11.978v29.913h-11.978V15.312zm6.315-1.545a6.315 6.315 0 100-12.63 6.315 6.315 0 000 12.63zm23.99 1.884h-14.295l8.746 14.44-9.194 15.135h12.894l5.402-7.793 2.723 7.793h14.354l-9.387-15.136 8.658-14.44H171.61l-2.723 7.263-3.553-7.262zm-64.186-8.199v37.774H113V32.575h17.373v-9.016H113v-6.686h18.445v-9.42h-30.298z" fill="url(#paint0_linear_1948_1184)"/></g><defs><linearGradient id="paint0_linear_1948_1184" x1="10.418" y1="31.856" x2="202.519" y2="32.999" gradientUnits="userSpaceOnUse"><stop stop-color="#EC548A"/><stop offset=".637" stop-color="#455A94"/><stop offset="1" stop-color="#455A94"/></linearGradient><clipPath id="clip0_1948_1184"><path fill="#fff" transform="translate(0 .208)" d="M0 0h186v46H0z"/></clipPath></defs></svg>