<svg width="20" height="20" fill="none" xmlns="http://www.w3.org/2000/svg"><g clip-path="url(#clip0_41_1052)"><path d="M0 20l1.414-5.133A9.815 9.815 0 01.086 9.91C.086 4.444 4.556 0 10.043 0a9.906 9.906 0 017.044 2.904A9.803 9.803 0 0120 9.914c0 5.466-4.47 9.91-9.962 9.91h-.005a9.999 9.999 0 01-4.76-1.207L0 20zm5.525-3.175l.301.18a8.33 8.33 0 004.212 1.15h.005c4.56 0 8.276-3.692 8.276-8.236 0-2.2-.86-4.268-2.421-5.827a8.233 8.233 0 00-5.855-2.414c-4.56-.005-8.276 3.688-8.276 8.232 0 1.554.435 3.07 1.265 4.382l.196.313-.835 3.038 3.132-.818z" fill="#F4F4F4"/><path d="M.349 19.653l1.365-4.957A9.488 9.488 0 01.425 9.914C.43 4.64 4.742.347 10.043.347c2.574 0 4.986.998 6.8 2.804a9.486 9.486 0 012.813 6.768c0 5.276-4.317 9.568-9.613 9.568h-.005c-1.61 0-3.19-.404-4.594-1.165L.35 19.653z" fill="#4E42AE"/><path d="M0 20l1.414-5.133A9.815 9.815 0 01.086 9.91C.086 4.444 4.556 0 10.043 0a9.906 9.906 0 017.044 2.904A9.803 9.803 0 0120 9.914c0 5.466-4.47 9.91-9.962 9.91h-.005a9.999 9.999 0 01-4.76-1.207L0 20zm5.525-3.175l.301.18a8.33 8.33 0 004.212 1.15h.005c4.56 0 8.276-3.692 8.276-8.236 0-2.2-.86-4.268-2.421-5.827a8.233 8.233 0 00-5.855-2.414c-4.56-.005-8.276 3.688-8.276 8.232 0 1.554.435 3.07 1.265 4.382l.196.313-.835 3.038 3.132-.818z" fill="#4E42AE"/><path fill-rule="evenodd" clip-rule="evenodd" d="M7.555 5.765c-.186-.413-.382-.423-.559-.428-.143-.004-.31-.004-.477-.004a.918.918 0 00-.664.309c-.23.247-.87.846-.87 2.067 0 1.217.894 2.396 1.018 2.562.124.166 1.724 2.747 4.25 3.74 2.101.827 2.531.661 2.985.618.453-.043 1.47-.599 1.68-1.178.206-.58.206-1.075.144-1.18-.062-.104-.23-.166-.478-.29-.248-.123-1.47-.722-1.7-.807-.229-.08-.396-.124-.558.123-.168.248-.645.804-.788.97-.144.167-.292.186-.54.062-.248-.124-1.05-.385-2-1.231-.741-.656-1.243-1.469-1.386-1.716-.143-.247-.014-.38.11-.504.11-.109.248-.29.372-.432.125-.143.168-.247.249-.414.081-.166.043-.309-.02-.432-.061-.119-.548-1.345-.768-1.835z" fill="#fff"/></g><defs><clipPath id="clip0_41_1052"><path fill="#fff" d="M0 0h20v20H0z"/></clipPath></defs></svg>